<?xml version="1.0" standalone="no"?>
<!DOCTYPE svg PUBLIC "-//W3C//DTD SVG 20010904//EN"
 "http://www.w3.org/TR/2001/REC-SVG-20010904/DTD/svg10.dtd">
<svg version="1.0" xmlns="http://www.w3.org/2000/svg"
 width="1024.000000pt" height="1024.000000pt" viewBox="0 0 1024.000000 1024.000000"
 preserveAspectRatio="xMidYMid meet">
<metadata>
Created by potrace 1.11, written by Peter Selinger 2001-2013
</metadata>
<g transform="translate(0.000000,1024.000000) scale(0.100000,-0.100000)"
fill="#000000" stroke="none">
<path d="M965 10234 c-11 -2 -45 -9 -75 -15 -140 -27 -271 -81 -405 -166 -84
-54 -233 -203 -295 -293 -72 -107 -146 -280 -166 -387 -4 -21 -9 -47 -13 -58
-9 -32 -11 -8315 -1 -8365 4 -25 11 -61 14 -81 9 -62 63 -207 106 -287 162
-302 448 -507 790 -566 74 -13 600 -15 4235 -13 2283 1 4159 5 4170 9 11 3 52
14 90 24 300 74 571 295 712 579 32 64 79 198 88 255 4 19 10 58 15 85 5 28 8
1891 7 4205 l-2 4155 -22 75 c-68 239 -142 369 -297 526 -150 151 -288 229
-526 297 l-75 22 -4165 1 c-2291 1 -4174 0 -4185 -2z m4895 -1842 c91 -39 151
-113 167 -207 5 -27 8 -521 8 -1097 0 -577 2 -1049 5 -1049 3 -1 489 -2 1081
-3 l1076 -1 59 -30 c72 -37 129 -108 144 -180 8 -34 10 -272 8 -735 l-3 -685
-22 -42 c-34 -64 -68 -97 -131 -129 l-57 -28 -1080 -1 -1080 0 -1 -1080 c-1
-971 -2 -1084 -17 -1117 -37 -87 -103 -145 -188 -168 -31 -9 -232 -12 -716
-12 -748 0 -730 -1 -811 68 -22 19 -53 60 -69 91 l-27 57 -1 1081 0 1080
-1080 0 -1080 0 -57 28 c-32 16 -73 47 -92 69 -69 80 -67 56 -64 839 l3 704
27 46 c33 56 77 95 138 123 44 20 59 20 1122 21 593 0 1079 2 1079 5 1 3 3
489 4 1080 l1 1075 23 52 c40 90 122 149 226 162 28 3 345 5 705 4 624 -1 657
-2 700 -21z"/>
</g>
</svg>
